<?xml version="1.0" standalone="no"?>
<!DOCTYPE svg PUBLIC "-//W3C//DTD SVG 1.1//EN" "http://www.w3.org/Graphics/SVG/1.1/DTD/svg11.dtd" >
<svg xmlns="http://www.w3.org/2000/svg" xmlns:xlink="http://www.w3.org/1999/xlink" version="1.1" viewBox="-30 -210 2570 2248">
  <g transform="matrix(1 0 0 -1 0 1638)">
   <path fill="currentColor"
d="M818 174l-33 140q60 24 60 87q0 41 -27.5 68t-68.5 27q-40 0 -67 -27t-27 -68q0 -29 16.5 -52.5t42.5 -34.5l-33 -140h137zM1734 1453q0 -51 40 -96q39 -42 98 -42t98 42q39 43 39 96t-41 96q-39 42 -96 42q-56 0 -97 -41t-41 -97zM986 792v254q0 94 -70 166
q-69 72 -167 72q-99 0 -168 -72q-68 -70 -68 -166v-254h473zM2019 799v-856l-147 -146l-146 146v97l97 99l-97 97l97 97l-97 98v368q-153 51 -245 178q-46 64 -68.5 133.5t-24.5 147.5q-1 62 16 122.5t49 114.5t77 100t99 78.5t115.5 50t126.5 16.5q131 -2 242 -65
q114 -65 177 -177q32 -57 48 -116t16 -124q0 -151 -92 -280q-91 -128 -243 -179zM1221 792h30q21 0 39.5 -8t32.5 -22t22 -32.5t8 -39.5v-694q0 -21 -8 -39.5t-22 -32t-32.5 -21.5t-39.5 -8h-1004q-21 0 -39.5 8t-32 21.5t-21.5 32t-8 39.5v694q0 21 8 39.5t21.5 32.5t32 22
t39.5 8h30v254q0 63 17.5 122t49 111.5t75 96t96 75t112 49t122.5 17.5q94 0 180 -38.5t150.5 -103t103 -150t38.5 -179.5v-254z" />
  </g>

</svg>
