<?xml version="1.0" encoding="iso-8859-1"?>
<!-- Generator: Adobe Illustrator 16.0.0, SVG Export Plug-In . SVG Version: 6.00 Build 0)  -->
<!DOCTYPE svg PUBLIC "-//W3C//DTD SVG 1.1//EN" "http://www.w3.org/Graphics/SVG/1.1/DTD/svg11.dtd">
<svg version="1.1" id="Capa_1" xmlns="http://www.w3.org/2000/svg" xmlns:xlink="http://www.w3.org/1999/xlink" x="0px" y="0px"
	 width="484.442px" height="484.443px" viewBox="0 0 484.442 484.443" style="enable-background:new 0 0 484.442 484.443;"
	 xml:space="preserve">
<g>
	<path d="M229.488,249.417l120.948,209.496c-32.516,16.204-69.036,25.529-107.828,25.529
		c-133.978,0-242.606-108.626-242.606-242.604C0.001,112.985,100.543,7.88,227.444,0v241.838
		C227.441,244.443,228.123,247.047,229.488,249.417z M484.441,226.675H257.771V0C379.604,7.551,476.89,104.839,484.441,226.675z
		 M288.097,196.349h161.574C432.054,115.825,368.623,52.39,288.097,34.767V196.349z M376.763,443.9
		c61.395-40.837,102.853-108.893,107.679-186.902H268.878L376.763,443.9z"/>
</g>
<g>
</g>
<g>
</g>
<g>
</g>
<g>
</g>
<g>
</g>
<g>
</g>
<g>
</g>
<g>
</g>
<g>
</g>
<g>
</g>
<g>
</g>
<g>
</g>
<g>
</g>
<g>
</g>
<g>
</g>
</svg>
