<svg xmlns="http://www.w3.org/2000/svg" width="941.47" height="982.36" viewBox="0 0 941.47 982.36">
  <g id="Group_1" data-name="Group 1" transform="translate(-506.41 -48.82)">
    <g id="Ellipse_1" data-name="Ellipse 1" transform="translate(563 299)" fill="#fff" stroke="#707070" stroke-width="1">
      <circle cx="267.5" cy="267.5" r="267.5" stroke="none"/>
      <circle cx="267.5" cy="267.5" r="267" fill="none"/>
    </g>
    <path id="Path_2" data-name="Path 2" d="M696.414,733.751h0c0-271.272,210.755-491.179,470.735-491.179h0c124.846,0,244.579,51.749,332.859,143.863s137.875,217.048,137.875,347.317h0c0,271.272-210.755,491.179-470.735,491.179h0c-259.979,0-470.735-219.909-470.735-491.179Z" transform="translate(-190.003 -193.752)" fill="#f0db4f" fill-rule="evenodd"/>
    <path id="Path_3" data-name="Path 3" d="M748.433,317.468h61.405v64.781H748.433Z" transform="translate(-27.604 40.061)" fill="rgba(0,0,0,0)" fill-rule="evenodd"/>
    <path id="Path_4" data-name="Path 4" d="M748.433,317.468h61.405v64.781H748.433Z" transform="translate(-27.604 40.061)" fill="none" stroke="#171717" stroke-miterlimit="800" stroke-width="2" fill-rule="evenodd"/>
    <path id="Path_5" data-name="Path 5" d="M772.916,317.468h61.406v64.781H772.916Z" transform="translate(48.828 40.061)" fill="rgba(0,0,0,0)" fill-rule="evenodd"/>
    <path id="Path_6" data-name="Path 6" d="M772.916,317.468h61.406v64.781H772.916Z" transform="translate(48.828 40.061)" fill="none" stroke="#171717" stroke-miterlimit="800" stroke-width="2" fill-rule="evenodd"/>
    <path id="Path_7" data-name="Path 7" d="M748.433,341.781h61.405v64.781H748.433Z" transform="translate(-27.604 115.963)" fill="rgba(0,0,0,0)" fill-rule="evenodd"/>
    <path id="Path_8" data-name="Path 8" d="M748.433,341.781h61.405v64.781H748.433Z" transform="translate(-27.604 115.963)" fill="none" stroke="#171717" stroke-miterlimit="800" stroke-width="2" fill-rule="evenodd"/>
    <path id="Path_9" data-name="Path 9" d="M772.916,341.781h61.406v64.781H772.916Z" transform="translate(48.828 115.963)" fill="rgba(0,0,0,0)" fill-rule="evenodd"/>
    <path id="Path_10" data-name="Path 10" d="M772.916,341.781h61.406v64.781H772.916Z" transform="translate(48.828 115.963)" fill="none" stroke="#171717" stroke-miterlimit="800" stroke-width="2" fill-rule="evenodd"/>
    <path id="Path_11" data-name="Path 11" d="M748.433,365.643h61.405v64.781H748.433Z" transform="translate(-27.604 190.456)" fill="rgba(0,0,0,0)" fill-rule="evenodd"/>
    <path id="Path_12" data-name="Path 12" d="M748.433,365.643h61.405v64.781H748.433Z" transform="translate(-27.604 190.456)" fill="none" stroke="#171717" stroke-miterlimit="800" stroke-width="2" fill-rule="evenodd"/>
    <path id="Path_13" data-name="Path 13" d="M772.916,365.643h61.406v64.781H772.916Z" transform="translate(48.828 190.456)" fill="rgba(0,0,0,0)" fill-rule="evenodd"/>
    <path id="Path_14" data-name="Path 14" d="M772.916,365.643h61.406v64.781H772.916Z" transform="translate(48.828 190.456)" fill="none" stroke="#171717" stroke-miterlimit="800" stroke-width="2" fill-rule="evenodd"/>
    <path id="Path_15" data-name="Path 15" d="M748.433,389.974h61.405v64.781H748.433Z" transform="translate(-27.604 266.414)" fill="rgba(0,0,0,0)" fill-rule="evenodd"/>
    <path id="Path_16" data-name="Path 16" d="M748.433,389.974h61.405v64.781H748.433Z" transform="translate(-27.604 266.414)" fill="none" stroke="#171717" stroke-miterlimit="800" stroke-width="2" fill-rule="evenodd"/>
    <path id="Path_17" data-name="Path 17" d="M772.916,389.974h61.406v64.781H772.916Z" transform="translate(48.828 266.414)" fill="rgba(0,0,0,0)" fill-rule="evenodd"/>
    <path id="Path_18" data-name="Path 18" d="M772.916,389.974h61.406v64.781H772.916Z" transform="translate(48.828 266.414)" fill="none" stroke="#171717" stroke-miterlimit="800" stroke-width="2" fill-rule="evenodd"/>
    <path id="Path_19" data-name="Path 19" d="M748.433,413.5h61.405v64.781H748.433Z" transform="translate(-27.604 339.846)" fill="rgba(0,0,0,0)" fill-rule="evenodd"/>
    <path id="Path_20" data-name="Path 20" d="M748.433,413.5h61.405v64.781H748.433Z" transform="translate(-27.604 339.846)" fill="none" stroke="#171717" stroke-miterlimit="800" stroke-width="2" fill-rule="evenodd"/>
    <path id="Path_21" data-name="Path 21" d="M772.916,413.5h61.406v64.781H772.916Z" transform="translate(48.828 339.846)" fill="rgba(0,0,0,0)" fill-rule="evenodd"/>
    <path id="Path_22" data-name="Path 22" d="M772.916,413.5h61.406v64.781H772.916Z" transform="translate(48.828 339.846)" fill="none" stroke="#171717" stroke-miterlimit="800" stroke-width="2" fill-rule="evenodd"/>
    <path id="Path_23" data-name="Path 23" d="M797.4,365.643H858.8v64.781H797.4Z" transform="translate(125.26 190.456)" fill="rgba(0,0,0,0)" fill-rule="evenodd"/>
    <path id="Path_24" data-name="Path 24" d="M797.4,365.643H858.8v64.781H797.4Z" transform="translate(125.26 190.456)" fill="none" stroke="#171717" stroke-miterlimit="800" stroke-width="2" fill-rule="evenodd"/>
    <path id="Path_25" data-name="Path 25" d="M821.882,365.643h61.405v64.781H821.882Z" transform="translate(201.692 190.456)" fill="rgba(0,0,0,0)" fill-rule="evenodd"/>
    <path id="Path_26" data-name="Path 26" d="M821.882,365.643h61.405v64.781H821.882Z" transform="translate(201.692 190.456)" fill="none" stroke="#171717" stroke-miterlimit="800" stroke-width="2" fill-rule="evenodd"/>
    <path id="Path_27" data-name="Path 27" d="M797.4,389.974H858.8v64.781H797.4Z" transform="translate(125.26 266.414)" fill="rgba(0,0,0,0)" fill-rule="evenodd"/>
    <path id="Path_28" data-name="Path 28" d="M797.4,389.974H858.8v64.781H797.4Z" transform="translate(125.26 266.414)" fill="none" stroke="#171717" stroke-miterlimit="800" stroke-width="2" fill-rule="evenodd"/>
    <path id="Path_29" data-name="Path 29" d="M821.882,389.974h61.405v64.781H821.882Z" transform="translate(201.692 266.414)" fill="rgba(0,0,0,0)" fill-rule="evenodd"/>
    <path id="Path_30" data-name="Path 30" d="M821.882,389.974h61.405v64.781H821.882Z" transform="translate(201.692 266.414)" fill="none" stroke="#171717" stroke-miterlimit="800" stroke-width="2" fill-rule="evenodd"/>
    <path id="Path_31" data-name="Path 31" d="M797.4,413.5H858.8v64.781H797.4Z" transform="translate(125.26 339.846)" fill="rgba(0,0,0,0)" fill-rule="evenodd"/>
    <path id="Path_32" data-name="Path 32" d="M797.4,413.5H858.8v64.781H797.4Z" transform="translate(125.26 339.846)" fill="none" stroke="#171717" stroke-miterlimit="800" stroke-width="2" fill-rule="evenodd"/>
    <path id="Path_33" data-name="Path 33" d="M821.882,413.5h61.405v64.781H821.882Z" transform="translate(201.692 339.846)" fill="rgba(0,0,0,0)" fill-rule="evenodd"/>
    <path id="Path_34" data-name="Path 34" d="M821.882,413.5h61.405v64.781H821.882Z" transform="translate(201.692 339.846)" fill="none" stroke="#171717" stroke-miterlimit="800" stroke-width="2" fill-rule="evenodd"/>
    <path id="Path_35" data-name="Path 35" d="M797.4,341.781H858.8v64.781H797.4Z" transform="translate(125.26 115.963)" fill="rgba(0,0,0,0)" fill-rule="evenodd"/>
    <path id="Path_36" data-name="Path 36" d="M797.4,341.781H858.8v64.781H797.4Z" transform="translate(125.26 115.963)" fill="none" stroke="#171717" stroke-miterlimit="800" stroke-width="2" fill-rule="evenodd"/>
    <path id="Path_37" data-name="Path 37" d="M846.364,389.974h61.405v64.781H846.364Z" transform="translate(278.121 266.414)" fill="rgba(0,0,0,0)" fill-rule="evenodd"/>
    <path id="Path_38" data-name="Path 38" d="M846.364,389.974h61.405v64.781H846.364Z" transform="translate(278.121 266.414)" fill="none" stroke="#171717" stroke-miterlimit="800" stroke-width="2" fill-rule="evenodd"/>
    <path id="Path_39" data-name="Path 39" d="M846.364,413.5h61.405v64.781H846.364Z" transform="translate(278.121 339.846)" fill="rgba(0,0,0,0)" fill-rule="evenodd"/>
    <path id="Path_40" data-name="Path 40" d="M846.364,413.5h61.405v64.781H846.364Z" transform="translate(278.121 339.846)" fill="none" stroke="#171717" stroke-miterlimit="800" stroke-width="2" fill-rule="evenodd"/>
    <path id="Path_41" data-name="Path 41" d="M871.362,413.5h61.406v64.781H871.362Z" transform="translate(356.161 339.846)" fill="rgba(0,0,0,0)" fill-rule="evenodd"/>
    <path id="Path_42" data-name="Path 42" d="M871.362,413.5h61.406v64.781H871.362Z" transform="translate(356.161 339.846)" fill="none" stroke="#171717" stroke-miterlimit="800" stroke-width="2" fill-rule="evenodd"/>
    <path id="Path_43" data-name="Path 43" d="M748.433,292.7h61.405v64.781H748.433Z" transform="translate(-27.604 -37.276)" fill="rgba(0,0,0,0)" fill-rule="evenodd"/>
    <path id="Path_44" data-name="Path 44" d="M748.433,292.7h61.405v64.781H748.433Z" transform="translate(-27.604 -37.276)" fill="none" stroke="#171717" stroke-miterlimit="800" stroke-width="2" fill-rule="evenodd"/>
    <path id="Path_45" data-name="Path 45" d="M819.854,265.083H947.729V704.661H819.854Z" transform="translate(195.361 -123.476)" fill="rgba(0,0,0,0)" fill-rule="evenodd"/>
    <path id="Path_46" data-name="Path 46" d="M985.852,288.774V451.522q0,37.869-19.772,58.092-19.708,20.223-58.478,20.223-34.328,0-55.967-19.385-21.639-19.45-21.64-52.3V436.388h46.693v8.888q0,23.507,7.535,32.2,7.6,8.694,22.542,8.695,13.525,0,20.416-7.342,6.955-7.342,6.955-29.239V288.774h51.716Z" transform="translate(227.018 -49.517)" fill="#fff"/>
    <path id="Path_47" data-name="Path 47" d="M857.224,305.847H985.1V745.425H857.224Z" transform="translate(312.024 3.783)" fill="rgba(0,0,0,0)" fill-rule="evenodd"/>
    <path id="Path_48" data-name="Path 48" d="M964.253,328.163q42.636,0,68.4,19.836,25.761,19.772,25.761,56.032H1008.37q-1.159-17.711-12.108-26.663t-34.134-8.952q-15.779,0-25.826,6.956-10.047,6.891-10.047,19.772,0,8.888,4.186,13.267,4.186,4.315,17.131,9.081,12.945,4.7,56.611,15.006,29.3,7.084,45.727,24.023,16.423,16.874,16.423,42.828,0,34.134-25.633,54.872-25.568,20.674-72.132,20.674-44.439,0-72.454-21.9-28.016-21.962-28.016-60.6V491.1h50.106q.322,21.9,14.62,32.717,14.362,10.756,37.547,10.755,20.931,0,33.361-7.6,12.494-7.664,12.494-21.7,0-11.4-9.6-18.742-9.532-7.342-30.656-12.623-27.049-6.119-49.14-12.945-22.026-6.891-36.452-22.219-14.363-15.393-14.362-39.415,0-31.687,25.311-51.395,25.375-19.772,62.923-19.772Z" transform="translate(345.974 73.45)" fill="#171717"/>
  </g>
</svg>
