<svg version="1.1" viewBox="695.0 240.0 231.0 242.0" fill="none" stroke="none" stroke-linecap="square" stroke-miterlimit="10" xmlns:xlink="http://www.w3.org/1999/xlink" xmlns="http://www.w3.org/2000/svg">
  <clipPath id="g802f331800_0_0.0">
    <path d="m0 0l1280.0 0l0 720.0l-1280.0 0l0 -720.0z" clip-rule="nonzero"/>
  </clipPath>
  <g clip-path="url(#g802f331800_0_0.0)">
    <path fill="#ffffff" d="m0 0l1280.0 0l0 720.0l-1280.0 0z" fill-rule="evenodd"/>
    <path fill="#f0db4f" d="m696.41254 361.7367l0 0c0 -65.8132 51.131226 -119.16536 114.20477 -119.16536l0 0c30.28894 0 59.337402 12.554886 80.754944 34.902725c21.417542 22.34784 33.449768 52.65802 33.449768 84.262634l0 0c0 65.8132 -51.131226 119.165344 -114.20471 119.165344l0 0c-63.073547 0 -114.20477 -53.352142 -114.20477 -119.165344z" fill-rule="evenodd"/>
    <path fill="#000000" fill-opacity="0.0" d="m748.4335 317.46783l14.897644 0l0 15.716522l-14.897644 0z" fill-rule="evenodd"/>
    <path stroke="#171717" stroke-width="2.0" stroke-miterlimit="800.0" stroke-linecap="butt" d="m748.4335 317.46783l14.897644 0l0 15.716522l-14.897644 0z" fill-rule="evenodd"/>
    <path fill="#000000" fill-opacity="0.0" d="m772.91626 317.46783l14.897644 0l0 15.716522l-14.897644 0z" fill-rule="evenodd"/>
    <path stroke="#171717" stroke-width="2.0" stroke-miterlimit="800.0" stroke-linecap="butt" d="m772.91626 317.46783l14.897644 0l0 15.716522l-14.897644 0z" fill-rule="evenodd"/>
    <path fill="#000000" fill-opacity="0.0" d="m748.4335 341.78058l14.897644 0l0 15.716522l-14.897644 0z" fill-rule="evenodd"/>
    <path stroke="#171717" stroke-width="2.0" stroke-miterlimit="800.0" stroke-linecap="butt" d="m748.4335 341.78058l14.897644 0l0 15.716522l-14.897644 0z" fill-rule="evenodd"/>
    <path fill="#000000" fill-opacity="0.0" d="m772.91626 341.78058l14.897644 0l0 15.716522l-14.897644 0z" fill-rule="evenodd"/>
    <path stroke="#171717" stroke-width="2.0" stroke-miterlimit="800.0" stroke-linecap="butt" d="m772.91626 341.78058l14.897644 0l0 15.716522l-14.897644 0z" fill-rule="evenodd"/>
    <path fill="#000000" fill-opacity="0.0" d="m748.4335 365.64273l14.897644 0l0 15.716522l-14.897644 0z" fill-rule="evenodd"/>
    <path stroke="#171717" stroke-width="2.0" stroke-miterlimit="800.0" stroke-linecap="butt" d="m748.4335 365.64273l14.897644 0l0 15.716522l-14.897644 0z" fill-rule="evenodd"/>
    <path fill="#000000" fill-opacity="0.0" d="m772.91626 365.64273l14.897644 0l0 15.716522l-14.897644 0z" fill-rule="evenodd"/>
    <path stroke="#171717" stroke-width="2.0" stroke-miterlimit="800.0" stroke-linecap="butt" d="m772.91626 365.64273l14.897644 0l0 15.716522l-14.897644 0z" fill-rule="evenodd"/>
    <path fill="#000000" fill-opacity="0.0" d="m748.4335 389.97388l14.897644 0l0 15.716522l-14.897644 0z" fill-rule="evenodd"/>
    <path stroke="#171717" stroke-width="2.0" stroke-miterlimit="800.0" stroke-linecap="butt" d="m748.4335 389.97388l14.897644 0l0 15.716522l-14.897644 0z" fill-rule="evenodd"/>
    <path fill="#000000" fill-opacity="0.0" d="m772.91626 389.97388l14.897644 0l0 15.716522l-14.897644 0z" fill-rule="evenodd"/>
    <path stroke="#171717" stroke-width="2.0" stroke-miterlimit="800.0" stroke-linecap="butt" d="m772.91626 389.97388l14.897644 0l0 15.716522l-14.897644 0z" fill-rule="evenodd"/>
    <path fill="#000000" fill-opacity="0.0" d="m748.4335 413.49573l14.897644 0l0 15.716553l-14.897644 0z" fill-rule="evenodd"/>
    <path stroke="#171717" stroke-width="2.0" stroke-miterlimit="800.0" stroke-linecap="butt" d="m748.4335 413.49573l14.897644 0l0 15.716553l-14.897644 0z" fill-rule="evenodd"/>
    <path fill="#000000" fill-opacity="0.0" d="m772.91626 413.49573l14.897644 0l0 15.716553l-14.897644 0z" fill-rule="evenodd"/>
    <path stroke="#171717" stroke-width="2.0" stroke-miterlimit="800.0" stroke-linecap="butt" d="m772.91626 413.49573l14.897644 0l0 15.716553l-14.897644 0z" fill-rule="evenodd"/>
    <path fill="#000000" fill-opacity="0.0" d="m797.3989 365.64273l14.897644 0l0 15.716522l-14.897644 0z" fill-rule="evenodd"/>
    <path stroke="#171717" stroke-width="2.0" stroke-miterlimit="800.0" stroke-linecap="butt" d="m797.3989 365.64273l14.897644 0l0 15.716522l-14.897644 0z" fill-rule="evenodd"/>
    <path fill="#000000" fill-opacity="0.0" d="m821.88165 365.64273l14.897644 0l0 15.716522l-14.897644 0z" fill-rule="evenodd"/>
    <path stroke="#171717" stroke-width="2.0" stroke-miterlimit="800.0" stroke-linecap="butt" d="m821.88165 365.64273l14.897644 0l0 15.716522l-14.897644 0z" fill-rule="evenodd"/>
    <path fill="#000000" fill-opacity="0.0" d="m797.3989 389.97388l14.897644 0l0 15.716522l-14.897644 0z" fill-rule="evenodd"/>
    <path stroke="#171717" stroke-width="2.0" stroke-miterlimit="800.0" stroke-linecap="butt" d="m797.3989 389.97388l14.897644 0l0 15.716522l-14.897644 0z" fill-rule="evenodd"/>
    <path fill="#000000" fill-opacity="0.0" d="m821.88165 389.97388l14.897644 0l0 15.716522l-14.897644 0z" fill-rule="evenodd"/>
    <path stroke="#171717" stroke-width="2.0" stroke-miterlimit="800.0" stroke-linecap="butt" d="m821.88165 389.97388l14.897644 0l0 15.716522l-14.897644 0z" fill-rule="evenodd"/>
    <path fill="#000000" fill-opacity="0.0" d="m797.3989 413.49573l14.897644 0l0 15.716553l-14.897644 0z" fill-rule="evenodd"/>
    <path stroke="#171717" stroke-width="2.0" stroke-miterlimit="800.0" stroke-linecap="butt" d="m797.3989 413.49573l14.897644 0l0 15.716553l-14.897644 0z" fill-rule="evenodd"/>
    <path fill="#000000" fill-opacity="0.0" d="m821.88165 413.49573l14.897644 0l0 15.716553l-14.897644 0z" fill-rule="evenodd"/>
    <path stroke="#171717" stroke-width="2.0" stroke-miterlimit="800.0" stroke-linecap="butt" d="m821.88165 413.49573l14.897644 0l0 15.716553l-14.897644 0z" fill-rule="evenodd"/>
    <path fill="#000000" fill-opacity="0.0" d="m797.3989 341.78058l14.897644 0l0 15.716522l-14.897644 0z" fill-rule="evenodd"/>
    <path stroke="#171717" stroke-width="2.0" stroke-miterlimit="800.0" stroke-linecap="butt" d="m797.3989 341.78058l14.897644 0l0 15.716522l-14.897644 0z" fill-rule="evenodd"/>
    <path fill="#000000" fill-opacity="0.0" d="m846.36444 389.97388l14.897644 0l0 15.716522l-14.897644 0z" fill-rule="evenodd"/>
    <path stroke="#171717" stroke-width="2.0" stroke-miterlimit="800.0" stroke-linecap="butt" d="m846.36444 389.97388l14.897644 0l0 15.716522l-14.897644 0z" fill-rule="evenodd"/>
    <path fill="#000000" fill-opacity="0.0" d="m846.36444 413.49573l14.897644 0l0 15.716553l-14.897644 0z" fill-rule="evenodd"/>
    <path stroke="#171717" stroke-width="2.0" stroke-miterlimit="800.0" stroke-linecap="butt" d="m846.36444 413.49573l14.897644 0l0 15.716553l-14.897644 0z" fill-rule="evenodd"/>
    <path fill="#000000" fill-opacity="0.0" d="m871.3622 413.49573l14.897644 0l0 15.716553l-14.897644 0z" fill-rule="evenodd"/>
    <path stroke="#171717" stroke-width="2.0" stroke-miterlimit="800.0" stroke-linecap="butt" d="m871.3622 413.49573l14.897644 0l0 15.716553l-14.897644 0z" fill-rule="evenodd"/>
    <path fill="#000000" fill-opacity="0.0" d="m748.4335 292.69534l14.897644 0l0 15.716522l-14.897644 0z" fill-rule="evenodd"/>
    <path stroke="#171717" stroke-width="2.0" stroke-miterlimit="800.0" stroke-linecap="butt" d="m748.4335 292.69534l14.897644 0l0 15.716522l-14.897644 0z" fill-rule="evenodd"/>
    <path fill="#000000" fill-opacity="0.0" d="m819.8538 265.08325l31.02362 0l0 106.64566l-31.02362 0z" fill-rule="evenodd"/>
    <path fill="#ffffff" d="m867.80695 288.77386l0 39.484375q0 9.1875 -4.796875 14.09375q-4.78125 4.90625 -14.1875 4.90625q-8.328125 0 -13.578125 -4.703125q-5.25 -4.71875 -5.25 -12.6875l0 -5.28125l11.328125 0l0 2.15625q0 5.703125 1.828125 7.8125q1.84375 2.109375 5.46875 2.109375q3.28125 0 4.953125 -1.78125q1.6875 -1.78125 1.6875 -7.09375l0 -39.015625l12.546875 0z" fill-rule="nonzero"/>
    <path fill="#000000" fill-opacity="0.0" d="m857.22394 305.84705l31.02362 0l0 106.64566l-31.02362 0z" fill-rule="evenodd"/>
    <path fill="#171717" d="m891.42706 328.16266q10.34375 0 16.59375 4.8125q6.25 4.796875 6.25 13.59375l-12.140625 0q-0.28125 -4.296875 -2.9375 -6.46875q-2.65625 -2.171875 -8.28125 -2.171875q-3.828125 0 -6.265625 1.6875q-2.4375 1.671875 -2.4375 4.796875q0 2.15625 1.015625 3.21875q1.015625 1.046875 4.15625 2.203125q3.140625 1.140625 13.734375 3.640625q7.109375 1.71875 11.09375 5.828125q3.984375 4.09375 3.984375 10.390625q0 8.28125 -6.21875 13.3125q-6.203125 5.015625 -17.5 5.015625q-10.78125 0 -17.578125 -5.3125q-6.796875 -5.328125 -6.796875 -14.703125l0 -0.3125l12.15625 0q0.078125 5.3125 3.546875 7.9375q3.484375 2.609375 9.109375 2.609375q5.078125 0 8.09375 -1.84375q3.03125 -1.859375 3.03125 -5.265625q0 -2.765625 -2.328125 -4.546875q-2.3125 -1.78125 -7.4375 -3.0625q-6.5625 -1.484375 -11.921875 -3.140625q-5.34375 -1.671875 -8.84375 -5.390625q-3.484375 -3.734375 -3.484375 -9.5625q0 -7.6875 6.140625 -12.46875q6.15625 -4.796875 15.265625 -4.796875z" fill-rule="nonzero"/>
  </g>
</svg>