<?xml version="1.0" encoding="UTF-8" standalone="no"?>
<svg
   xmlns:dc="http://purl.org/dc/elements/1.1/"
   xmlns:cc="http://creativecommons.org/ns#"
   xmlns:rdf="http://www.w3.org/1999/02/22-rdf-syntax-ns#"
   xmlns:svg="http://www.w3.org/2000/svg"
   xmlns="http://www.w3.org/2000/svg"
   viewBox="0 0 1280 746.66669"
   height="746.66669"
   width="1280"
   xml:space="preserve"
   id="svg2"
   version="1.1"><metadata
     id="metadata8"><rdf:RDF><cc:Work
         rdf:about=""><dc:format>image/svg+xml</dc:format><dc:type
           rdf:resource="http://purl.org/dc/dcmitype/StillImage" /></cc:Work></rdf:RDF></metadata><defs
     id="defs6"><clipPath
       id="clipPath22"
       clipPathUnits="userSpaceOnUse"><path
         id="path20"
         d="M 0,560 H 960 V 0 H 0 Z" /></clipPath></defs><g
     transform="matrix(1.3333333,0,0,-1.3333333,0,746.66667)"
     id="g10"><g
       transform="translate(419.373,147.9775)"
       id="g12"><path
         id="path14"
         style="fill:#880000;fill-opacity:1;fill-rule:nonzero;stroke:none"
         d="m 0,0 -30.373,47.114 v -84.092 h 59.032 l 1.968,1.822 v 82.27 z" /></g><g
       id="g16"><g
         clip-path="url(#clipPath22)"
         id="g18"><g
           transform="translate(701.5283,334.0166)"
           id="g24"><path
             id="path26"
             style="fill:#880000;fill-opacity:1;fill-rule:nonzero;stroke:none"
             d="m 0,0 c -11.508,-0.858 -23.044,-1.747 -34.576,-1.814 -7.099,-0.041 -14.317,0.886 -21.281,2.335 -8.799,1.831 -16.195,6.19 -20.545,14.701 -0.649,1.26 -2.815,1.986 -4.422,2.465 -5.672,1.687 -11.406,3.156 -17.134,5.274 1.993,0.15 3.986,0.439 5.976,0.419 4.881,-0.048 9.817,0.18 14.625,-0.465 8.784,-1.179 17.5,-2.894 26.24,-4.411 4.982,-0.866 9.989,-1.645 14.929,-2.707 9.375,-2.017 18.715,-4.186 28.06,-6.333 C -1.953,8.047 4.209,6.577 10.368,5.086 M 2.246,-62.402 c -14.353,-4.423 -28.866,-8.402 -42.98,-13.492 -8.835,-3.187 -17.138,-7.909 -25.539,-12.217 -7.325,-3.757 -9.915,-10.167 -9.017,-18.127 0.58,-5.115 1.282,-10.215 1.74,-15.4 -3.753,5.536 -6.525,11.528 -8.153,18.045 -0.335,1.348 -0.653,2.702 -0.936,4.063 -1.109,5.31 1.835,8.616 5.682,11.493 7.484,5.604 15.639,10.017 24.487,12.953 11.039,3.666 22.111,7.323 33.364,10.228 7.926,2.043 16.177,2.821 24.278,4.194 1.494,0.256 2.966,0.659 4.448,0.991 0.051,-0.202 0.101,-0.405 0.153,-0.609 -2.51,-0.704 -5.04,-1.354 -7.527,-2.122 m -202.398,56.796 c -0.237,-0.231 -0.477,-0.461 -0.715,-0.689 -6.4,4.668 -13.346,8.143 -20.956,10.159 -0.213,-0.208 -0.422,-0.414 -0.63,-0.622 6.551,-7.678 13.102,-15.355 19.941,-23.361 -4.579,1.498 -8.841,2.893 -13.102,4.289 -0.182,-0.214 -0.362,-0.43 -0.544,-0.645 5.157,-8.497 11.872,-15.879 18.273,-24.396 -11.129,6.32 -20.952,13.223 -30.122,21.065 -12.587,10.764 -23.566,22.907 -31.79,37.367 -3.389,5.959 -6.379,12.122 -7.019,19.095 -0.143,1.555 -0.019,3.202 0.344,4.72 0.59,2.467 2.931,3.606 5.333,2.859 13.202,-4.103 26.177,-8.753 38.32,-15.5 11.495,-6.385 21.899,-14.155 30.847,-23.823 0.363,-0.391 0.631,-0.869 1.131,-1.568 -7.01,3.193 -13.66,6.221 -20.309,9.252 -0.226,-0.277 -0.449,-0.553 -0.676,-0.829 3.892,-5.792 7.782,-11.583 11.674,-17.373 m -400.309,-70.217 c -0.165,-0.448 0.35,-0.889 0.525,-1.332 2.736,0.576 5.45,1.327 8.212,1.701 0.721,0.093 1.443,0.185 2.165,0.282 10.198,3.634 20.645,6.487 31.431,8.009 15.246,2.147 31.051,4.997 46.612,4.913 14.785,-0.075 29.742,-2.339 44.207,-4.833 4.059,-0.699 8.044,-1.637 11.97,-2.74 10.569,-2.373 20.501,-6.605 29.425,-12.323 0.644,-0.307 1.27,-0.647 1.907,-0.969 12.692,-5.979 23.873,-14.774 32.702,-25.549 1.616,-1.788 4.599,-3.652 6.042,-5.61 3.042,-3.589 4.735,-7.412 9.735,-11.42 v 54.677 h 62.979 l 29.605,-54.625 29.693,54.625 h 64.723 v -105.734 l 11.064,7.122 c 0,0 11.972,31.487 66.842,35.907 l 62.951,2.034 c -9.699,20.08 -9.631,20.08 -4.953,26.136 4.631,5.995 40.371,9.923 46.653,13.672 l 91.777,18.516 c 0.215,0.705 0.465,-0.379 0.937,-0.231 2.285,0.721 4.653,1.174 7.915,1.941 l 20.755,5.05 c 1.351,0.76 2.959,1.062 4.447,1.578 9.699,3.367 18.179,7.702 22.871,18.034 4.57,10.066 10.69,19.416 12.909,30.487 0.699,3.502 0.096,6.546 -2.431,9.064 -3.059,3.043 -7.002,4.351 -11.062,5.404 -3.227,0.838 -4.983,-0.604 -5.947,-3.568 -0.551,-1.69 -1.332,-3.301 -1.953,-4.969 -1.175,-3.163 -2.457,-6.297 -3.423,-9.523 -0.923,-3.084 -1.502,-6.271 -2.229,-9.412 -0.856,9.655 1.356,18.817 4.328,27.808 0.625,1.882 0.044,2.645 -1.345,3.215 -13.257,5.441 -26.466,11.012 -39.83,16.18 -8.218,3.177 -16.645,5.816 -25.037,8.517 -8.301,2.672 -16.648,5.193 -25.019,7.64 -7.709,2.255 -15.466,4.352 -23.213,6.465 -7.558,2.061 -15.105,4.182 -22.71,6.051 -8.862,2.178 -17.784,4.117 -26.683,6.149 -6.756,1.545 -13.489,3.197 -20.278,4.581 -7.395,1.506 -14.835,2.799 -22.268,4.108 -9.493,1.67 -18.971,3.521 -28.517,4.82 -11.529,1.569 -23.132,2.584 -34.692,3.947 -19.358,2.282 -38.766,2.893 -58.185,1.41 -6.882,-0.526 -13.672,-2.27 -20.501,-3.456 7.234,-3.717 14.393,-6.724 21.455,-9.944 7.102,-3.238 13.723,-7.295 19.805,-12.193 -7.957,3.045 -15.7,6.56 -23.677,9.409 -16.657,5.946 -33.602,10.882 -51.197,13.263 -8.608,1.164 -17.194,2.282 -25.793,-0.144 -8.717,-2.46 -11.181,-5.694 -11.97,-14.442 -1.308,-14.498 3.054,-27.945 8.848,-40.911 8.641,-19.335 21.234,-35.804 37.337,-49.577 12.33,-10.549 26.011,-18.863 41.123,-24.791 4.305,-1.688 8.65,-3.274 12.974,-4.908 -0.098,-0.335 -0.196,-0.667 -0.293,-1.006 -8.287,2.271 -16.781,3.971 -24.808,6.939 -14.195,5.246 -26.888,13.261 -38.501,22.994 -12.963,10.866 -23.736,23.566 -31.743,38.447 -8.496,15.788 -13.359,32.659 -13.534,50.714" /></g><g
           transform="translate(101.0347,257.5625)"
           id="g28"><path
             id="path30"
             style="fill:#880000;fill-opacity:1;fill-rule:nonzero;stroke:none"
             d="M 0,0 C 0,0 147.202,139.625 304.598,127.779" /></g></g></g></g></svg>