<svg id="a4975185-c5b7-4104-804b-23dd4659b7da" data-name="Logos" xmlns="http://www.w3.org/2000/svg" xmlns:xlink="http://www.w3.org/1999/xlink" viewBox="0 0 300 300"><defs><style>.e1075355-581f-465c-bdb0-291f59eaf361{fill:url(#b8a5ec75-4e6c-4fa7-8885-ea6c03e4914a);}.aedb09a0-8a41-4cf1-843d-c28cc31ee59d{fill:#fff;}.b9fcde4c-ae26-4b94-a64c-e0573037a689{fill:url(#f0e497c0-32b0-48b8-96e0-d0aaa58f997f);}.e1e0fd03-52fe-4723-af00-0ff80f15a1a7{mask:url(#e85fef1d-9e68-4055-b1a4-3f7bbc53c5f5);}.be9836dc-d2a2-4b8f-8d0d-58e35215ea66{fill:url(#a3ea6605-d2df-45af-96bd-32a7ff2b3c73);}.f34d86e5-9cf9-418b-ad77-62bb7741b23f{fill:url(#a589cd43-2499-4987-9ebd-5abc83e127d4);}.b8fef6f6-7630-46c1-a18d-ab37031fbce0{mask:url(#b712441e-dc03-4f29-a4be-dbe03d84be1a);}.e0ed503f-d163-4165-b16f-13283d29dd2a{fill:url(#a96a6c46-d69e-4f7d-8fd4-3171ff9bb069);}.bdef0d2f-13f6-405f-ac09-86157ed0be82{fill:#3f873f;}.b2ad6d36-daa0-4e47-a0b3-2c12eed1be57{mask:url(#ec91721b-4554-42ea-a7ef-3db7b975e0b0);}.f2156ee3-270f-4364-b2b4-94896ee493d6{fill:#6abf4b;}.f60f9503-6e70-4c23-9012-dd1adfb56dcb{mask:url(#ef8a7cbd-2478-4cb7-9543-cca08e54f823);}.a3a3ba6c-6ab1-496d-a4d8-5b230a69946e{mask:url(#b7d61996-614c-441b-a914-f1d3eec73731);}</style><linearGradient id="b8a5ec75-4e6c-4fa7-8885-ea6c03e4914a" x1="179.37" y1="88.22" x2="114.84" y2="223.92" gradientUnits="userSpaceOnUse"><stop offset="0"/><stop offset="0.14" stop-color="#040404"/><stop offset="0.26" stop-color="#0f0f0f"/><stop offset="0.39" stop-color="#222"/><stop offset="0.51" stop-color="#3c3c3c"/><stop offset="0.63" stop-color="#5f5f5f"/><stop offset="0.75" stop-color="#898989"/><stop offset="0.86" stop-color="#bbb"/><stop offset="0.98" stop-color="#f3f3f3"/><stop offset="1" stop-color="#fff"/></linearGradient><linearGradient id="f0e497c0-32b0-48b8-96e0-d0aaa58f997f" x1="70.47" y1="150" x2="229.53" y2="150" gradientUnits="userSpaceOnUse"><stop offset="0"/><stop offset="0.14"/><stop offset="0.29" stop-color="#414141"/><stop offset="0.45" stop-color="#848484"/><stop offset="0.61" stop-color="#b9b9b9"/><stop offset="0.74" stop-color="#dfdfdf"/><stop offset="0.84" stop-color="#f6f6f6"/><stop offset="0.91" stop-color="#fff"/><stop offset="1" stop-color="#fff"/></linearGradient><mask id="e85fef1d-9e68-4055-b1a4-3f7bbc53c5f5" x="64.31" y="52.46" width="171.39" height="195.09" maskUnits="userSpaceOnUse"><path class="aedb09a0-8a41-4cf1-843d-c28cc31ee59d" d="M70.47,197.25a8.75,8.75,0,0,0,2.59,2.28l62.47,36.08,10.4,6a8.82,8.82,0,0,0,5.07,1.15,9.1,9.1,0,0,0,1.73-.32l76.8-140.62a9,9,0,0,0-2-1.63L179.8,72.65l-25.2-14.5a8.43,8.43,0,0,0-2.28-.91Z"/></mask><linearGradient id="a3ea6605-d2df-45af-96bd-32a7ff2b3c73" x1="139.63" y1="150" x2="304.75" y2="150" xlink:href="#f0e497c0-32b0-48b8-96e0-d0aaa58f997f"/><linearGradient id="a589cd43-2499-4987-9ebd-5abc83e127d4" x1="70.47" y1="150" x2="229.53" y2="150" gradientUnits="userSpaceOnUse"><stop offset="0" stop-color="#fff"/><stop offset="0.09" stop-color="#fff"/><stop offset="0.16" stop-color="#f6f6f6"/><stop offset="0.26" stop-color="#dfdfdf"/><stop offset="0.39" stop-color="#b9b9b9"/><stop offset="0.55" stop-color="#848484"/><stop offset="0.71" stop-color="#414141"/><stop offset="0.86"/><stop offset="1"/></linearGradient><mask id="b712441e-dc03-4f29-a4be-dbe03d84be1a" x="70.47" y="57.15" width="159.06" height="185.69" maskUnits="userSpaceOnUse"><path class="aedb09a0-8a41-4cf1-843d-c28cc31ee59d" d="M229.53,197.25a8.75,8.75,0,0,1-2.59,2.28l-62.47,36.08-10.4,6a8.82,8.82,0,0,1-5.07,1.15,9.1,9.1,0,0,1-1.73-.32L70.47,101.8a9,9,0,0,1,2-1.63L120.2,72.65l25.2-14.5a8.43,8.43,0,0,1,2.28-.91Z"/></mask><linearGradient id="a96a6c46-d69e-4f7d-8fd4-3171ff9bb069" x1="-1189.01" y1="-873.66" x2="-1187.28" y2="-873.66" gradientTransform="matrix(97.42, 0, 0, -97.42, 115893.25, -84958.96)" xlink:href="#a589cd43-2499-4987-9ebd-5abc83e127d4"/><mask id="ec91721b-4554-42ea-a7ef-3db7b975e0b0" x="68.39" y="57.1" width="163.23" height="185.8" maskUnits="userSpaceOnUse"><path class="e1075355-581f-465c-bdb0-291f59eaf361" d="M231.61,107.92a8.77,8.77,0,0,0-4.4-7.61l-72.8-42a8.79,8.79,0,0,0-8.8,0l-72.82,42a8.77,8.77,0,0,0-4.4,7.61V192a8.8,8.8,0,0,0,4.39,7.62l72.83,42.06a8.81,8.81,0,0,0,8.8,0l72.81-42.06a8.8,8.8,0,0,0,4.39-7.62Z"/></mask><mask id="ef8a7cbd-2478-4cb7-9543-cca08e54f823" x="64.31" y="52.46" width="171.39" height="195.09" maskUnits="userSpaceOnUse"><path class="b9fcde4c-ae26-4b94-a64c-e0573037a689" d="M70.47,197.25a8.75,8.75,0,0,0,2.59,2.28l62.47,36.08,10.4,6a8.82,8.82,0,0,0,5.07,1.15,9.1,9.1,0,0,0,1.73-.32l76.8-140.62a9,9,0,0,0-2-1.63L179.8,72.65l-25.2-14.5a8.43,8.43,0,0,0-2.28-.91Z"/><g class="e1e0fd03-52fe-4723-af00-0ff80f15a1a7"><path class="be9836dc-d2a2-4b8f-8d0d-58e35215ea66" d="M154.63,246.31l76.45-44.17a9.23,9.23,0,0,0,4.61-8V105.82a9.23,9.23,0,0,0-4.61-8L154.63,53.69a9.29,9.29,0,0,0-9.24,0L68.92,97.82a9.23,9.23,0,0,0-4.61,8v88.32a9.23,9.23,0,0,0,4.61,8l76.47,44.17A9.24,9.24,0,0,0,154.63,246.31Z"/></g></mask><mask id="b7d61996-614c-441b-a914-f1d3eec73731" x="70.47" y="57.15" width="159.06" height="185.69" maskUnits="userSpaceOnUse"><path class="f34d86e5-9cf9-418b-ad77-62bb7741b23f" d="M229.53,197.25a8.75,8.75,0,0,1-2.59,2.28l-62.47,36.08-10.4,6a8.82,8.82,0,0,1-5.07,1.15,9.1,9.1,0,0,1-1.73-.32L70.47,101.8a9,9,0,0,1,2-1.63L120.2,72.65l25.2-14.5a8.43,8.43,0,0,1,2.28-.91Z"/><g class="b8fef6f6-7630-46c1-a18d-ab37031fbce0"><rect class="e0ed503f-d163-4165-b16f-13283d29dd2a" x="70.76" y="57.15" width="158.47" height="185.69"/></g></mask></defs><title>techservicelogo_</title><g id="b2f6909a-3805-471c-8053-657be48c8ba8" data-name="Node JS"><path id="ed3d2387-09a7-431b-bf40-114bbe71bfd8" data-name="colorgroup1" class="bdef0d2f-13f6-405f-ac09-86157ed0be82" d="M145.61,58.28l-72.82,42a8.77,8.77,0,0,0-4.4,7.61V192a8.8,8.8,0,0,0,4.39,7.62l72.83,42.06a8.81,8.81,0,0,0,8.8,0l72.81-42.06a8.8,8.8,0,0,0,4.39-7.62V107.92a8.77,8.77,0,0,0-4.4-7.61l-72.8-42a8.79,8.79,0,0,0-8.8,0"/><g class="b2ad6d36-daa0-4e47-a0b3-2c12eed1be57"><path id="a7403408-d414-4b6d-b422-ad7d17a3deca" data-name="colorgroup3" class="f2156ee3-270f-4364-b2b4-94896ee493d6" d="M145.61,58.28l-72.82,42a8.77,8.77,0,0,0-4.4,7.61V192a8.8,8.8,0,0,0,4.39,7.62l72.83,42.06a8.81,8.81,0,0,0,8.8,0l72.81-42.06a8.8,8.8,0,0,0,4.39-7.62V107.92a8.77,8.77,0,0,0-4.4-7.61l-72.8-42a8.79,8.79,0,0,0-8.8,0"/></g><g class="e1e0fd03-52fe-4723-af00-0ff80f15a1a7"><path id="a5d5351e-55e6-476f-99d8-9adc658aa216" data-name="colorgroup1" class="bdef0d2f-13f6-405f-ac09-86157ed0be82" d="M154.63,246.31l76.45-44.17a9.23,9.23,0,0,0,4.61-8V105.82a9.23,9.23,0,0,0-4.61-8L154.63,53.69a9.29,9.29,0,0,0-9.24,0L68.92,97.82a9.23,9.23,0,0,0-4.61,8v88.32a9.23,9.23,0,0,0,4.61,8l76.47,44.17A9.24,9.24,0,0,0,154.63,246.31Z"/></g><g class="f60f9503-6e70-4c23-9012-dd1adfb56dcb"><path id="bb8607e0-0719-4b9a-8997-3da4cfa5b7ff" data-name="colorgroup3" class="f2156ee3-270f-4364-b2b4-94896ee493d6" d="M154.63,246.31l76.45-44.17a9.23,9.23,0,0,0,4.61-8V105.82a9.23,9.23,0,0,0-4.61-8L154.63,53.69a9.29,9.29,0,0,0-9.24,0L68.92,97.82a9.23,9.23,0,0,0-4.61,8v88.32a9.23,9.23,0,0,0,4.61,8l76.47,44.17A9.24,9.24,0,0,0,154.63,246.31Z"/></g><g class="b8fef6f6-7630-46c1-a18d-ab37031fbce0"><rect id="e1a48e85-0567-49ec-a272-1281d88aaea9" data-name="colorgroup1" class="bdef0d2f-13f6-405f-ac09-86157ed0be82" x="70.76" y="57.15" width="158.47" height="185.69"/></g><g class="a3a3ba6c-6ab1-496d-a4d8-5b230a69946e"><rect id="b5507ba3-8731-4b51-8326-2406e426e384" data-name="colorgroup3" class="f2156ee3-270f-4364-b2b4-94896ee493d6" x="70.76" y="57.15" width="158.47" height="185.69"/></g></g></svg>